<svg width="444" height="112.12" viewBox="0 0 693 175" fill="none" xmlns="http://www.w3.org/2000/svg">
<path d="M100.155 0H175C175 94.4507 167.585 153.262 119.382 153.262C106.288 153.262 96.4409 146.494 89.1629 137.279C81.5541 159.288 69.4469 175 50.3846 175C6.17993 175 0.654914 101.76 0 88.0274H70.8474C70.8474 93.8186 75.4361 119.9 89.1629 137.279C106.947 85.838 100.155 0 100.155 0Z" fill="black"/>
<path d="M650.074 153.296C640.381 153.296 632.015 151.278 624.976 147.241C617.937 143.146 612.513 137.38 608.705 129.94C604.955 122.501 603.08 113.736 603.08 103.644C603.08 93.6672 604.955 84.9305 608.705 77.4337C612.456 69.8792 617.735 63.9971 624.543 59.7873C631.351 55.5775 639.371 53.4727 648.602 53.4727C654.545 53.4727 660.17 54.4242 665.478 56.3272C670.844 58.2303 675.575 61.1713 679.672 65.1504C683.826 69.1295 687.086 74.2043 689.451 80.3748C691.817 86.4876 693 93.7826 693 102.26V109.353H613.725V94.0421H681.662L671.017 98.5402C671.017 93.0617 670.181 88.3041 668.508 84.2673C666.834 80.1729 664.353 76.9723 661.065 74.6656C657.776 72.3589 653.68 71.2056 648.775 71.2056C643.871 71.2056 639.688 72.3589 636.227 74.6656C632.765 76.9723 630.14 80.0864 628.351 84.0078C626.562 87.8716 625.668 92.1967 625.668 96.9831V107.623C625.668 113.505 626.678 118.551 628.697 122.761C630.774 126.913 633.659 130.085 637.352 132.276C641.102 134.467 645.458 135.563 650.42 135.563C653.651 135.563 656.593 135.102 659.247 134.179C661.959 133.256 664.267 131.872 666.171 130.027C668.132 128.124 669.633 125.788 670.671 123.02L691.961 125.529C690.576 131.123 688.009 136.024 684.259 140.234C680.566 144.386 675.806 147.616 669.979 149.922C664.209 152.171 657.574 153.296 650.074 153.296Z" fill="black"/>
<path d="M570.052 151.394V54.6844H592.813V151.394H570.052ZM581.476 43.9491C577.841 43.9491 574.725 42.7381 572.129 40.316C569.533 37.894 568.234 34.9817 568.234 31.5793C568.234 28.1192 569.533 25.1782 572.129 22.7561C574.725 20.3341 577.841 19.123 581.476 19.123C585.053 19.123 588.14 20.3341 590.736 22.7561C593.332 25.1782 594.63 28.0904 594.63 31.4928C594.63 34.9529 593.332 37.894 590.736 40.316C588.14 42.7381 585.053 43.9491 581.476 43.9491Z" fill="black"/>
<path d="M421.014 151.393V54.6837H442.736V71.2055H443.948C445.967 65.6694 449.314 61.3443 453.987 58.2303C458.66 55.0585 464.199 53.4727 470.604 53.4727C477.181 53.4727 482.72 55.0585 487.22 58.2303C491.72 61.402 494.865 65.7271 496.653 71.2055H497.692C499.884 65.8424 503.519 61.5462 508.596 58.3168C513.674 55.0874 519.732 53.4727 526.771 53.4727C535.656 53.4727 542.897 56.2984 548.493 61.9498C554.148 67.5436 556.975 75.7325 556.975 86.5164V151.393H534.127V89.9765C534.127 84.0367 532.512 79.6827 529.281 76.9147C526.107 74.0889 522.213 72.6761 517.597 72.6761C512.116 72.6761 507.846 74.4061 504.789 77.8662C501.731 81.2686 500.202 85.6514 500.202 91.0145V151.393H477.7V89.1114C477.7 84.0943 476.229 80.1152 473.286 77.1742C470.344 74.1754 466.449 72.6761 461.603 72.6761C458.314 72.6761 455.314 73.5123 452.602 75.1846C449.891 76.857 447.727 79.1926 446.112 82.1913C444.554 85.19 443.775 88.6501 443.775 92.5715V151.393H421.014Z" fill="black"/>
<path d="M355.096 153.123C347.537 153.123 340.758 151.191 334.758 147.327C328.757 143.406 323.997 137.726 320.478 130.286C317.016 122.847 315.285 113.822 315.285 103.211C315.285 92.4274 317.045 83.3447 320.564 75.9632C324.142 68.5817 328.959 62.9879 335.017 59.1818C341.075 55.3757 347.826 53.4727 355.269 53.4727C360.923 53.4727 365.567 54.4242 369.202 56.3272C372.837 58.2303 375.722 60.537 377.857 63.2474C380.049 65.9001 381.722 68.3798 382.876 70.6865H383.915V54.6837H406.589V151.393H384.261V136.082H382.876C381.722 138.446 380.02 140.955 377.77 143.608C375.578 146.203 372.635 148.452 368.943 150.355C365.308 152.2 360.692 153.123 355.096 153.123ZM361.5 134.438C366.404 134.438 370.529 133.141 373.876 130.546C377.222 127.893 379.789 124.231 381.578 119.56C383.367 114.831 384.261 109.353 384.261 103.125C384.261 96.839 383.395 91.3893 381.665 86.7759C379.934 82.1048 377.366 78.5005 373.962 75.9632C370.558 73.4258 366.404 72.1571 361.5 72.1571C356.423 72.1571 352.182 73.4834 348.778 76.1362C345.374 78.7889 342.806 82.4508 341.075 87.1219C339.402 91.793 338.566 97.1273 338.566 103.125C338.566 109.122 339.431 114.485 341.162 119.214C342.893 123.943 345.46 127.662 348.864 130.373C352.326 133.083 356.538 134.438 361.5 134.438Z" fill="black"/>
<path d="M262.808 152.947C255.073 152.947 247.993 151.589 241.567 148.873C235.2 146.097 230.143 141.964 226.394 136.473C222.646 130.982 220.771 124.191 220.771 116.102V114.065H244.69V116.102C244.69 119.645 245.434 122.715 246.922 125.313C248.469 127.911 250.611 129.889 253.348 131.247C256.085 132.605 259.238 133.284 262.808 133.284C266.676 133.284 269.948 132.487 272.626 130.893C275.363 129.299 277.415 126.907 278.784 123.719C280.212 120.53 280.926 116.633 280.926 112.028V19.207H304.756V112.028C304.756 120.53 303.03 127.852 299.579 133.993C296.188 140.075 291.338 144.769 285.031 148.076C278.784 151.323 271.376 152.947 262.808 152.947Z" fill="black"/>
</svg>
