<svg width="444" height="113" viewBox="0 0 444 113" fill="none" xmlns="http://www.w3.org/2000/svg">
<path d="M64.1689 0H112.121C112.121 60.5132 107.371 98.1925 76.4871 98.1925C68.0979 98.1925 61.789 93.8563 57.126 87.9528C52.2512 102.053 44.4941 112.12 32.2811 112.12C3.95944 112.12 0.419599 65.1964 0 56.3979H45.3915C45.3915 60.1082 48.3314 76.8184 57.126 87.9528C68.5202 54.9952 64.1689 0 64.1689 0Z" fill="white"/>
<path d="M416.498 98.2151C410.287 98.2151 404.927 96.9219 400.418 94.3356C395.908 91.7124 392.433 88.0177 389.993 83.2515C387.591 78.4854 386.389 72.8694 386.389 66.4037C386.389 60.0118 387.591 54.4144 389.993 49.6113C392.396 44.7712 395.779 41.0026 400.14 38.3055C404.502 35.6083 409.641 34.2598 415.555 34.2598C419.363 34.2598 422.967 34.8694 426.368 36.0886C429.805 37.3079 432.836 39.1922 435.461 41.7415C438.123 44.2909 440.211 47.5422 441.727 51.4956C443.242 55.4119 444 60.0857 444 65.517V70.0614H393.209V60.252H436.736L429.916 63.1339C429.916 59.6239 429.38 56.5758 428.308 53.9895C427.236 51.3662 425.647 49.3157 423.54 47.8378C421.433 46.3599 418.808 45.621 415.666 45.621C412.524 45.621 409.844 46.3599 407.626 47.8378C405.408 49.3157 403.726 51.3108 402.58 53.8232C401.434 56.2987 400.861 59.0697 400.861 62.1363V68.953C400.861 72.7216 401.508 75.9545 402.802 78.6516C404.133 81.3118 405.981 83.3439 408.347 84.7479C410.75 86.1519 413.54 86.8539 416.719 86.8539C418.79 86.8539 420.675 86.5583 422.375 85.9671C424.113 85.376 425.591 84.4893 426.811 83.307C428.068 82.0877 429.029 80.5913 429.694 78.8179L443.335 80.4251C442.448 84.0089 440.803 87.1494 438.4 89.8466C436.034 92.5068 432.984 94.5758 429.251 96.0537C425.554 97.4946 421.303 98.2151 416.498 98.2151Z" fill="white"/>
<path d="M365.228 96.9958V35.0356H379.811V96.9958H365.228ZM372.547 28.1576C370.219 28.1576 368.222 27.3818 366.559 25.83C364.896 24.2782 364.064 22.4124 364.064 20.2325C364.064 18.0157 364.896 16.1314 366.559 14.5796C368.222 13.0278 370.219 12.252 372.547 12.252C374.839 12.252 376.817 13.0278 378.48 14.5796C380.144 16.1314 380.976 17.9972 380.976 20.1771C380.976 22.3939 380.144 24.2782 378.48 25.83C376.817 27.3818 374.839 28.1576 372.547 28.1576Z" fill="white"/>
<path d="M269.741 96.9958V35.0357H283.658V45.621H284.434C285.728 42.0741 287.872 39.303 290.866 37.3079C293.861 35.2758 297.409 34.2598 301.512 34.2598C305.727 34.2598 309.275 35.2758 312.159 37.3079C315.042 39.34 317.056 42.111 318.202 45.621H318.868C320.272 42.1849 322.601 39.4323 325.854 37.3633C329.107 35.2943 332.989 34.2598 337.498 34.2598C343.191 34.2598 347.83 36.0702 351.416 39.691C355.039 43.2748 356.85 48.5213 356.85 55.4304V96.9958H342.212V57.6472C342.212 53.8417 341.176 51.0522 339.106 49.2787C337.073 47.4683 334.578 46.5631 331.621 46.5631C328.109 46.5631 325.374 47.6715 323.415 49.8884C321.455 52.0682 320.476 54.8762 320.476 58.3123V96.9958H306.059V57.093C306.059 53.8786 305.117 51.3293 303.231 49.445C301.346 47.5237 298.851 46.5631 295.746 46.5631C293.639 46.5631 291.717 47.0989 289.979 48.1703C288.242 49.2418 286.856 50.7381 285.821 52.6594C284.823 54.5806 284.324 56.7975 284.324 59.3098V96.9958H269.741Z" fill="white"/>
<path d="M227.507 98.1042C222.665 98.1042 218.321 96.8665 214.477 94.3911C210.632 91.8787 207.583 88.2394 205.328 83.4732C203.11 78.7071 202.001 72.9248 202.001 66.1266C202.001 59.2175 203.128 53.3983 205.383 48.6691C207.675 43.9399 210.762 40.356 214.643 37.9175C218.525 35.479 222.85 34.2598 227.618 34.2598C231.241 34.2598 234.216 34.8694 236.545 36.0886C238.874 37.3079 240.722 38.7858 242.09 40.5223C243.495 42.2219 244.567 43.8106 245.306 45.2885H245.971V35.0357H260.499V96.9958H246.193V87.1864H245.306C244.567 88.7012 243.476 90.3084 242.035 92.008C240.63 93.6706 238.745 95.1115 236.379 96.3308C234.05 97.5131 231.093 98.1042 227.507 98.1042ZM231.61 86.1334C234.752 86.1334 237.395 85.3021 239.539 83.6395C241.683 81.9399 243.328 79.5938 244.474 76.6011C245.62 73.5714 246.193 70.0614 246.193 66.0712C246.193 62.0439 245.639 58.5524 244.53 55.5967C243.421 52.604 241.776 50.2948 239.595 48.6691C237.414 47.0434 234.752 46.2306 231.61 46.2306C228.357 46.2306 225.64 47.0804 223.459 48.78C221.279 50.4795 219.634 52.8257 218.525 55.8184C217.453 58.8111 216.917 62.2287 216.917 66.0712C216.917 69.9137 217.471 73.3497 218.58 76.3794C219.689 79.409 221.334 81.7921 223.515 83.5286C225.733 85.2651 228.431 86.1334 231.61 86.1334Z" fill="white"/>
<path d="M168.379 97.9918C163.424 97.9918 158.887 97.1217 154.77 95.3816C150.691 93.6036 147.451 90.9554 145.049 87.4372C142.648 83.919 141.447 79.5686 141.447 74.3859V73.0807H156.771V74.3859C156.771 76.6557 157.248 78.6228 158.201 80.2874C159.192 81.9519 160.565 83.2192 162.318 84.0893C164.072 84.9594 166.092 85.3944 168.379 85.3944C170.857 85.3944 172.954 84.8837 174.669 83.8623C176.423 82.8409 177.738 81.3088 178.615 79.2659C179.53 77.2231 179.987 74.7263 179.987 71.7756V12.3066H195.255V71.7756C195.255 77.2231 194.149 81.914 191.938 85.8484C189.765 89.7449 186.659 92.7524 182.618 94.8709C178.615 96.9515 173.869 97.9918 168.379 97.9918Z" fill="white"/>
</svg>
