<svg width="48" height="48" viewBox="0 0 48 48" fill="none" xmlns="http://www.w3.org/2000/svg">
<g clip-path="url(#clip0_8_59)">
<path d="M35.7209 0H12.2791C5.49753 0 0 5.49753 0 12.2791V35.7209C0 42.5025 5.49753 48 12.2791 48H35.7209C42.5025 48 48 42.5025 48 35.7209V12.2791C48 5.49753 42.5025 0 35.7209 0Z" fill="url(#paint0_radial_8_59)"/>
<path d="M25.6895 10.1044H38.3227C38.3227 26.0469 37.0711 35.9736 28.9348 35.9736C26.7246 35.9736 25.0626 34.8312 23.8341 33.2759C22.5498 36.9908 20.5062 39.6428 17.2886 39.6428C9.8273 39.6428 8.89472 27.2807 8.78418 24.9627H20.7426C20.7426 25.9402 21.5171 30.3426 23.8341 33.2759C26.8359 24.5932 25.6895 10.1044 25.6895 10.1044Z" fill="white"/>
</g>
<defs>
<radialGradient id="paint0_radial_8_59" cx="0" cy="0" r="1" gradientUnits="userSpaceOnUse" gradientTransform="translate(24) rotate(90) scale(53.693 115.036)">
<stop stop-color="#100531"/>
<stop offset="0.207241" stop-color="#230E5F"/>
<stop offset="0.497255" stop-color="#5236C0"/>
<stop offset="0.717519" stop-color="#885AEA"/>
<stop offset="1" stop-color="#C1A3FF"/>
</radialGradient>
<clipPath id="clip0_8_59">
<rect width="48" height="48" fill="white"/>
</clipPath>
</defs>
</svg>
